<svg xmlns="http://www.w3.org/2000/svg" width="68" height="63" viewBox="0 0 68 63" fill="none">
  <g clip-path="url(#clip0_2_64)">
    <path d="M17.0899 44.8883C16.8503 46.5455 16.72 48.2173 16.5056 49.8787C15.9781 53.9976 15.2804 58.0934 14.8959 62.2394C14.8433 62.8093 14.8769 63.0419 15.5662 63.0062C22.9448 62.6333 30.3276 62.3107 35.573 62.405C45.9862 62.3505 54.2285 61.6654 62.4877 61.4056C65.867 61.2988 65.9426 61.2883 66.0792 57.9006C66.2894 52.5981 66.4302 47.2955 66.634 41.9951C66.7664 38.5424 66.7811 35.0814 67.1636 31.6476C67.8466 25.5301 67.8403 19.3958 68.0042 13.2616C68.0274 12.3774 67.6659 12.1617 66.8925 12.2287C65.4226 12.3512 63.944 12.3252 62.4792 12.1512C60.39 11.9144 58.2806 11.9144 56.1914 12.1512C52.8142 12.5262 49.4286 12.7797 46.0304 12.874C45.8412 12.874 45.6101 12.9494 45.444 12.8907L43.8406 22.6159C43.9562 22.155 44.2377 21.956 44.864 21.7591C49.4013 20.3323 54.1424 20.8372 58.7553 20.171C60.1066 19.9762 60.0772 20.0998 60.1717 21.4657C60.4218 25.1027 59.9616 28.7209 59.867 33.8998C59.8775 39.0913 59.308 45.8038 58.688 52.5122C58.5451 54.0667 58.4947 54.1044 56.8807 54.1275C46.3057 54.2825 35.7622 55.3174 25.1788 55.2839C24.2793 55.2839 23.9872 55.2064 24.1469 54.1714C24.6072 51.1713 24.9434 48.1503 25.2649 45.1334C25.3237 44.5741 25.4751 44.2305 25.7861 44.0566L16.245 43.9497C17.0121 43.9455 17.1928 44.1425 17.0899 44.8883Z" fill="black"/>
    <path d="M35.1989 51.1357C39.0847 51.3096 42.9747 51.1022 46.8499 50.9095C47.4153 50.8802 47.7284 50.767 47.8713 50.1553C49.231 44.3478 50.6285 38.5508 51.9882 32.7455C52.1743 31.8925 52.2965 31.027 52.3539 30.156C52.3637 30.0458 52.382 29.9366 52.4086 29.8292L54.0099 20.104C53.8838 20.0558 53.8124 19.9259 53.8628 19.6096C54.3167 16.7477 54.302 13.8524 54.4933 10.9717C54.6824 8.2649 55.1238 5.57488 55.502 2.88484C55.605 2.15158 55.4285 1.89179 54.6614 1.96931C54.1404 2.0386 53.6111 2.01162 53.1 1.8897C50.6975 1.2516 48.2296 0.890289 45.7445 0.812844C33.3601 0.282799 20.9714 -0.125737 8.5722 0.0376761C7.78832 0.0376761 7.40165 0.21157 7.21881 1.05168C5.83809 7.32005 5.15928 13.6953 4.21148 20.0307C3.44861 25.1258 2.86858 30.2482 2.05107 35.3245C1.33865 39.7618 0.561082 44.1844 0.0125761 48.6447C-0.0777908 49.3885 0.155482 49.6923 0.853198 49.7509C5.34002 50.1699 9.82685 50.6204 14.3137 51.0289C17.8107 51.3453 21.3139 51.1504 24.8214 51.1546L34.3625 51.2614C34.6252 51.1464 34.9138 51.103 35.1989 51.1357Z" fill="black"/>
    <path d="M46.1123 8.98767C46.6987 9.00443 46.8689 9.24117 46.8037 9.84035C46.0156 17.0222 45.0237 24.1788 43.9036 31.3103C43.3131 35.0584 42.2602 38.7331 41.4637 42.4518C41.3229 43.1075 40.9551 43.0803 40.4844 43.0572C35.9324 42.875 31.3783 43.0049 25.8911 42.9944C21.0155 43.0237 15.2005 43.1724 9.40655 42.4811C8.55332 42.3805 8.45034 42.1333 8.50708 41.3267C8.73615 38.1234 8.80344 34.9117 9.022 31.7084C9.52703 24.0116 10.6187 16.3643 12.2878 8.83263C12.4391 8.15384 12.6871 7.959 13.3743 7.92757C18.914 7.67198 24.4306 8.08679 29.9535 8.39057C33.028 8.55817 36.1152 8.55399 39.2003 8.55609C41.5141 8.55609 43.8027 8.92062 46.1123 8.98767Z" fill="white"/>
    <path d="M27.5871 38.9531C21.5115 38.5341 17.7981 35.3915 16.8167 29.8459C16.5834 28.5386 16.657 28.4967 17.9368 28.4003C18.9876 28.3207 20.0383 28.2327 21.0639 28.0714C21.7112 27.9709 22.1147 28.0714 22.348 28.7481C22.518 29.206 22.7567 29.6355 23.0562 30.0219C24.0691 31.3962 25.2586 32.45 27.1584 32.2468C29.2221 32.0373 31.1031 31.4486 31.7041 29.2111C32.2295 27.2606 33.3853 26.5253 35.3104 26.7138C35.6625 26.7212 36.0144 26.6938 36.3611 26.6321C38.0634 26.4561 38.2231 26.4708 38.0424 28.1217C37.3405 34.7504 34.0368 38.7436 27.5871 38.9531Z" fill="black"/>
    <path d="M30.8298 17.4329C30.8782 16.2534 30.8025 15.0969 31.7734 14.6255C32.8894 14.0808 34.1272 14.4705 35.1675 15.0717C36.0081 15.5515 36.0858 16.511 36.1363 17.3763C36.2182 18.8114 35.3692 20.3094 34.3983 20.5566C33.4274 20.8038 31.4078 19.6222 30.9559 18.4615C30.8109 18.0886 30.853 17.6424 30.8298 17.4329Z" fill="black"/>
    <path d="M18.1868 19.0376C18.0881 17.9901 18.6513 17.1353 19.6012 16.6556C20.1507 16.3802 20.7562 16.2341 21.3712 16.2287C21.9862 16.2232 22.5943 16.3585 23.1486 16.6241C23.3066 16.7057 23.442 16.8248 23.5428 16.971C23.6436 17.1172 23.7067 17.2859 23.7265 17.4621C24.1258 19.6179 23.964 20.7095 21.9255 21.6522C20.5091 22.3226 18.1574 20.7388 18.1868 19.0376Z" fill="black"/>
  </g>
  <defs>
    <clipPath id="clip0_2_64">
      <rect width="68" height="63" fill="white"/>
    </clipPath>
  </defs>
</svg>