<svg width="194" height="194" viewBox="0 0 194 194" fill="none" xmlns="http://www.w3.org/2000/svg">
<g id="_&#235;&#160;&#136;&#236;&#157;&#180;&#236;&#150;&#180;_1" clip-path="url(#clip0_166_7)">
<g id="Group">
<path id="Vector" d="M0 97C0 114.671 4.72504 131.237 12.9853 145.509L97 97H0Z" fill="#00BB58"/>
<path id="Vector_2" d="M96.9997 97L48.4912 181.015C62.7631 189.269 79.3292 194 96.9997 194V97Z" fill="#00BB58"/>
<path id="Vector_3" d="M97 194C114.671 194 131.237 189.275 145.509 181.015L97 97V194Z" fill="#00BB58"/>
<path id="Vector_4" d="M97 97.0001L145.509 181.015C160.23 172.498 172.504 160.225 181.02 145.503L97.0057 96.9944L97 97.0001Z" fill="#00BB58"/>
<path id="Vector_5" d="M96.9995 97L12.9849 145.509C21.5013 160.23 33.7751 172.504 48.4967 181.02L97.0052 97.0057L96.9995 97Z" fill="#00BB58"/>
<path id="Vector_6" d="M96.9997 97V0C79.3292 0 62.7631 4.72504 48.4912 12.9853L96.9997 97Z" fill="#00BB58"/>
<path id="Vector_7" d="M48.4913 12.9854C33.7697 21.5018 21.496 33.7755 12.9795 48.4972L96.9942 97.0057L48.4913 12.9854Z" fill="#00BB58"/>
<path id="Vector_8" d="M97 97L12.9853 48.4915C4.72504 62.7634 0 79.3295 0 97H97Z" fill="#00BB58"/>
</g>
<g id="Group_2">
<path id="Vector_9" d="M194 97C194 114.671 189.275 131.237 181.015 145.509L97 97H194Z" fill="#00BB58"/>
<path id="Vector_10" d="M97 97L181.015 48.4915C189.269 62.7634 194 79.3295 194 97H97Z" fill="#00BB58"/>
</g>
</g>
<defs>
<clipPath id="clip0_166_7">
<rect width="194" height="194" fill="white"/>
</clipPath>
</defs>
</svg>
