<svg xmlns="http://www.w3.org/2000/svg" width="70" height="51" viewBox="0 0 70 51" fill="none">
  <g clip-path="url(#clip0_2_59)">
    <path d="M0.0141276 15.9344C0.0141276 12.7235 0.03058 9.51266 0 6.2971C0 5.55432 0.181107 5.23936 0.97854 5.04897C11.1546 2.61379 21.5072 1.5725 31.9279 1.05302C35.3317 0.881433 38.6837 -0.0258922 42.0993 0.0728311C48.5822 0.263226 55.0863 -0.467793 61.5528 0.561751C63.0536 0.796806 64.5944 0.796807 66.1187 0.886128C66.8856 0.928438 67.2337 1.16349 67.2949 2.06141C67.937 12.7306 68.5839 23.3997 69.3437 34.0595C69.6213 37.9661 69.4354 41.8963 69.9859 45.7817C70.087 46.501 69.8448 46.6985 69.1297 46.776C60.6614 47.6833 52.193 48.3509 43.6918 48.3556C36.4302 48.3556 29.2298 49.2488 22.0082 49.8153C15.6052 50.3207 9.21165 50.9906 2.77574 50.9906C2.10062 50.9906 2.02533 50.7108 1.9924 50.1679C1.6913 45.4417 1.37766 40.7155 1.05148 35.9893C0.58807 29.3161 0.329337 22.6288 0.0141276 15.9344Z" fill="black"/>
    <path d="M60.3979 37.7146C60.4544 38.5938 60.2921 38.9699 59.3088 38.9581C50.3889 38.8641 41.5936 40.4484 32.7277 40.9561C28.1901 41.2146 23.6431 41.3204 19.0984 41.4497C16.5142 41.5341 13.9372 41.7696 11.3805 42.1549C9.62806 42.4087 9.62567 42.3711 9.39985 40.6458C8.57889 34.3533 8.31073 28.0116 7.69207 21.7027C7.58151 20.5814 7.51803 19.4532 7.43335 18.332C7.60272 18.3132 7.69442 18.2756 7.75323 18.3038C13.1965 21.0046 19.1125 22.5207 24.6475 24.9911C27.7926 26.4014 30.8623 27.9575 34.0732 29.2221C34.7131 29.4712 35.1953 29.49 35.8092 29.1304C41.3183 25.9102 46.9921 22.9743 52.3577 19.5166C54.2396 18.3061 56.0415 16.9921 57.8833 15.7322C58.1938 15.5207 58.5302 15.3421 58.9936 15.0647C59.1112 16.7101 59.2288 18.1839 59.3205 19.66C59.6616 25.668 60.0004 31.6996 60.3979 37.7146Z" fill="white"/>
    <path d="M15.3934 11.6071C27.1667 10.9019 38.8342 8.86635 50.6993 9.42813C46.4416 12.4133 42.3462 15.5842 37.5381 17.6292C36.1055 18.2404 34.7788 19.1077 33.4263 19.8928C33.2422 20.0279 33.0226 20.1065 32.7945 20.1191C32.5665 20.1316 32.3397 20.0774 32.1419 19.9633C26.708 17.2649 21.453 14.1998 15.7722 12.009C15.6857 11.9703 15.6077 11.9148 15.5427 11.8458C15.4777 11.7768 15.427 11.6957 15.3934 11.6071Z" fill="white"/>
  </g>
  <defs>
    <clipPath id="clip0_2_59">
      <rect width="70" height="51" fill="white"/>
    </clipPath>
  </defs>
</svg>